<?xml version="1.0" encoding="UTF-8" standalone="no"?>
<svg
   viewBox="0 0 771.68 829.88"
   version="1.1"
   id="svg20"
   sodipodi:docname="nm.svg"
   inkscape:version="1.4 (86a8ad7, 2024-10-11)"
   inkscape:export-filename="nm.png"
   inkscape:export-xdpi="96"
   inkscape:export-ydpi="96"
   xmlns:inkscape="http://www.inkscape.org/namespaces/inkscape"
   xmlns:sodipodi="http://sodipodi.sourceforge.net/DTD/sodipodi-0.dtd"
   xmlns="http://www.w3.org/2000/svg"
   xmlns:svg="http://www.w3.org/2000/svg">
  <sodipodi:namedview
     id="namedview20"
     pagecolor="#ffffff"
     bordercolor="#000000"
     borderopacity="0.25"
     inkscape:showpageshadow="2"
     inkscape:pageopacity="0.0"
     inkscape:pagecheckerboard="0"
     inkscape:deskcolor="#d1d1d1"
     inkscape:zoom="0.67057048"
     inkscape:cx="208.03182"
     inkscape:cy="407.86167"
     inkscape:window-width="1920"
     inkscape:window-height="1001"
     inkscape:window-x="-9"
     inkscape:window-y="-9"
     inkscape:window-maximized="1"
     inkscape:current-layer="图层_2" />
  <defs
     id="defs1">
    <style
       id="style1">
      .cls-1 {
        fill: #ed7d31;
      }
    </style>
  </defs>
  <g
     id="图层_2"
     data-name="图层 2">
    <g
       id="g5"
       transform="matrix(0.81278416,0,0,0.88062722,72.765248,133.37479)">
      <path
         class="cls-1"
         d="m 508.23,0 c 4.59,1.05 8,1.7 11.43,2.66 4.71,1.33 9.45,2.67 14,4.4 7.45,2.83 15,5.55 22.13,9.08 Q 573.87,25 591.39,35 c 7.71,4.38 15.08,9.41 22.39,14.45 7.31,5.04 14.7,9.76 21.15,15.63 19.42,17.64 38.33,35.84 57.65,53.6 a 12.13,12.13 0 0 0 8.27,3.08 c 11.6,-1.16 20.58,2.53 26.95,12.42 a 24.44,24.44 0 0 0 3.91,4.53 c 10.16,9.38 11.86,21 9.7,34 -0.88,5.29 -2.56,9.51 -6.38,13.53 -1.59,1.67 -0.64,6.53 0.27,9.6 1.28,4.36 3.71,8.37 5.45,12.61 1.74,4.24 3.29,8.49 4.81,12.78 2,5.53 3.78,11.1 5.68,16.64 1.9,5.54 3.73,10.81 5.61,16.22 a 9.62,9.62 0 0 1 0.64,1.34 c 1.29,7.09 2.54,14.18 3.82,21.27 1.51,8.39 3.06,16.77 4.57,25.17 0.78,4.36 1.58,8.73 2.23,13.11 0.9,6.05 1.68,12.11 2.52,18.17 a 12.83,12.83 0 0 1 0.34,1.46 c 0.28,12.45 0.88,24.92 0.66,37.37 -0.1,6 -8.75,10.51 -13.53,7 -2.81,-2.05 -4.16,-6.32 -5.77,-9.79 -3.28,-7.09 -6.29,-14.31 -9.4,-21.48 -1,-2.4 -2,-4.84 -3.08,-7.23 C 737.41,335 735,329.42 732.42,324 c -1.29,-2.68 -3,-5.13 -4.58,-7.7 -4,-6.71 -9.25,-13 -11.55,-20.26 a 87.45,87.45 0 0 0 -7.81,-18.53 c -5.32,-9 -10.21,-18.22 -15.47,-27.24 -4.27,-7.32 -8.67,-14.56 -13.27,-21.68 -3.77,-5.82 -7.77,-11.51 -12,-17 -0.87,-1.13 -3.8,-2 -4.93,-1.39 -7.74,4.15 -15.89,2.39 -23.85,1.82 -2,-0.15 -3.68,-3.19 -5.78,-4.39 a 7.63,7.63 0 0 0 -4.61,-0.53 49.49,49.49 0 0 0 -6.44,1.83 c -2.61,0.77 -5.22,1.53 -7.81,2.34 -0.46,0.14 -0.82,0.65 -1.28,0.75 -6,1.27 -12.12,2.45 -18.15,3.78 a 64,64 0 0 0 -6.54,2 c -1.09,0.36 -2.1,1 -3.2,1.28 -8.36,2.16 -16.7,4.39 -25.11,6.35 -6.52,1.52 -13.19,2.46 -19.69,4.08 -6.5,1.62 -12.74,3.86 -19.16,5.63 a 32,32 0 0 1 -7.3,1.07 c -4.05,0.15 -7.69,2.08 -7.24,5.84 0.39,3.18 3.1,7.41 5.91,8.67 5.12,2.3 11.14,2.5 16.66,4 5.94,1.64 11.71,3.91 17.61,5.71 5.15,1.57 10.41,2.76 15.56,4.33 a 56.21,56.21 0 0 1 10.1,3.79 c 13.28,7.08 27.41,12.73 38.41,23.61 9.11,9 18.67,17.83 23.47,29.92 3.57,9 4.87,18.92 8,28.14 2.33,6.79 3.17,14.07 12.05,17.87 7.92,3.39 14,11 21.19,16.26 3.47,2.54 7.51,5.15 11.61,5.83 9.23,1.53 15.38,6.29 19,14.61 a 10.93,10.93 0 0 1 0.6,4.88 c -0.55,8.79 3.21,15.68 8.83,22.08 a 33.48,33.48 0 0 1 6,10.08 c 3.21,8.57 6.12,17.27 8.59,26.09 1.46,5.23 2.75,10.81 2.53,16.17 -0.38,8.77 2.71,16.08 6.81,23.4 4.53,8.09 7.6,16.75 4.39,26 -2.34,6.76 -5.7,13.18 -8.58,19.76 -0.53,1.19 -1.34,2.4 -1.38,3.63 -0.28,8.55 -4.24,15.47 -10.18,21 -8.84,8.27 -13,19 -17.2,29.82 a 37.07,37.07 0 0 1 -4.43,8.25 c -5.94,8.25 -12.11,16.34 -18.16,24.51 a 77.83,77.83 0 0 0 -6,8.51 c -1.84,3.33 -4.28,4.87 -8,4.7 -3,-0.14 -6,0 -9,0 H 257.09 c -7.74,0 -7.81,0 -7.86,-7.77 -0.09,-13.46 0,-26.93 -0.27,-40.39 -0.24,-10.24 1.61,-20 4.42,-29.82 0.91,-3.19 -0.9,-7.39 -2.13,-10.9 -1.44,-4.13 -3.95,-7.9 -5.34,-12 -1.8,-5.41 -2.94,-11 -4.38,-16.57 -1.82,-7 -3.74,-13.92 -5.41,-20.93 a 61.47,61.47 0 0 1 -1.2,-8.8 c -0.4,-4.51 -3.31,-5.87 -7.22,-3.79 -4.14,2.21 -8.7,3.63 -12.84,5.85 -3,1.63 -6.6,3.4 -8.33,6.13 -5.8,9.18 -14.15,14.48 -24.1,17.75 a 101,101 0 0 1 -11.67,3.25 c -5.54,1.1 -10.42,-0.74 -14.78,-4.2 -3.8,-3 -7.69,-3.9 -11.66,-0.21 a 2.88,2.88 0 0 1 -1.28,0.75 c -6.23,1.25 -12.43,2.95 -18.73,3.6 -15.57,1.61 -30.84,-1.29 -46.07,-4.06 -5.6,-1 -9.71,-6.08 -10.26,-11.73 a 12.66,12.66 0 0 0 -1.49,-4.08 c -0.41,-0.88 -1.5,-1.56 -1.65,-2.43 -1.29,-7.88 -2.38,-15.79 -3.66,-23.67 -0.55,-3.36 -1.44,-6.67 -2.17,-10 a 21.11,21.11 0 0 1 -0.89,-4.36 c 0,-11.16 -1.32,-22.55 0.46,-33.43 1.9,-11.59 1.67,-23.18 3.1,-34.64 0.83,-6.74 2.4,-13.49 3.23,-20.37 C 65.78,379.8 69,373 70.73,366 c 0.51,-2.11 -0.58,-4.62 -1,-6.93 -0.09,-0.42 -0.82,-0.7 -0.93,-1.13 -0.91,-3.54 -1.94,-6.92 -6.76,-6 -3.32,0.66 -6.62,1.42 -9.92,2.21 -0.62,0.14 -1.14,0.75 -1.77,0.88 -6.2,1.29 -12.41,2.52 -18.62,3.77 -1.13,0.23 -2.27,0.47 -3.42,0.67 -3.27,0.58 -7.63,2.74 -9.61,1.4 A 41,41 0 0 1 6.9,348.65 c -3,-4.88 -4.14,-10.88 -6.14,-16.38 -2.34,-6.38 1.2,-16.69 7.07,-20 a 48.48,48.48 0 0 1 22.12,-6.63 c 4,-0.18 5.69,-1.43 4.71,-5.91 -1.71,-7.77 -3.88,-15.68 -3.85,-23.52 0.03,-7.84 1.94,-15.87 11.67,-18.92 8.66,-2.71 17,-6.54 25.46,-9.86 8.91,-3.49 17.81,-7 26.76,-10.42 6,-2.27 12.1,-4.26 18.12,-6.47 a 70.38,70.38 0 0 0 9.95,-4.07 c 9.09,-5.06 18.88,-7.62 29,-5.65 a 39.15,39.15 0 0 1 16.73,7.9 c 8,6.63 15,14.57 22.34,22 a 8.66,8.66 0 0 1 2,3.32 c 2.45,7.38 8.66,9.71 15.3,5.67 a 8,8 0 0 1 2.12,-1.28 c 6.53,-1.35 13.1,-2.56 19.63,-3.93 a 39.79,39.79 0 0 0 5.55,-1.78 c 0.76,-0.28 1.38,-1.07 2.14,-1.22 6.7,-1.32 13.49,-2.27 20.11,-3.9 6.62,-1.63 13,-4 19.48,-5.85 4.23,-1.24 8.51,-2.32 12.8,-3.38 6.05,-1.49 12.06,-3.39 18.21,-4.2 7.4,-1 8.43,-1.51 8.44,-9.2 0,-31.66 0.16,-63.33 0,-95 -0.06,-9.74 1,-18.75 8.78,-25.71 0.64,-0.57 1,-2.48 0.59,-3 -7.9,-10.15 -6.46,-22.1 -5.48,-33.41 0.53,-6 4.36,-12 7.69,-17.35 a 34.44,34.44 0 0 1 9.8,-9.85 c 4.62,-3.15 10.21,-4.84 14.95,-7.85 6.94,-4.42 14.5,-2.34 21.81,-3.06 16.71,-1.65 30.65,5 42.35,15.66 8.94,8.11 18.71,9.26 29.47,8 4.49,-0.51 8.81,-2.44 13.22,-3.67 6.42,-1.79 12.85,3.53 12.61,10.68 a 61.74,61.74 0 0 0 3.63,21.29 c 0.91,2.69 5.67,5 9.06,5.73 7.47,1.64 14.21,8.77 14.21,16.49 0,21.33 0.11,42.66 -0.13,64 0,4 -1.65,8 -2.28,12 -0.27,1.8 -0.61,4.49 0.36,5.35 0.97,0.86 3.59,0.35 5.41,0 3,-0.6 6,-1.55 8.93,-2.36 6.45,-1.77 12.91,-3.53 19.36,-5.34 0.78,-0.22 1.47,-0.86 2.26,-1 6.57,-1.34 13.23,-2.33 19.72,-4 6.49,-1.67 13.1,-4 19.64,-6 a 22.2,22.2 0 0 1 2.4,-0.61 c 6.58,-1.24 13.18,-2.33 19.72,-3.75 a 75.66,75.66 0 0 0 12.18,-3.59 5.12,5.12 0 0 0 2.48,-4.18 c -1.2,-8.39 2,-14.44 8.67,-19.31 0.92,-0.68 1.23,-3.78 0.49,-4.84 -2.83,-4.07 -6.22,-7.75 -9.38,-11.59 a 579,579 0 0 0 -50.26,-54 C 545.36,51.96 531.32,39.75 517.4,27.43 512.7,23.27 507.4,19.77 502.82,15.5 498.24,11.23 499.72,4.29 505.41,1.63 A 24.38,24.38 0 0 0 508.23,0 Z M 369.09,574.59 h 40.48 c 2.58,0 4.7,-0.13 5.82,-3.34 a 54.4,54.4 0 0 0 3.37,-21.39 c -0.09,-1.58 0.62,-3.21 1,-4.81 0.75,-3 1.82,-5.87 2.29,-8.88 1.38,-8.73 2.52,-17.51 3.81,-26.26 0.12,-0.77 0.83,-1.45 1.06,-2.23 a 74,74 0 0 0 2,-7.54 c 1.34,-7.58 2.51,-15.18 3.78,-22.77 0.08,-0.47 0.48,-0.88 0.62,-1.35 0.79,-2.81 1.7,-5.59 2.3,-8.45 1.4,-6.7 2.65,-13.44 4,-20.16 a 8.13,8.13 0 0 1 0.42,-0.9 c 2,-6.31 4.1,-12.58 5.9,-18.94 2.12,-7.49 3.94,-15.07 6,-22.59 1.36,-5 2.9,-10 4.24,-15.07 1.43,-5.35 2.42,-10.84 4.13,-16.11 2.84,-8.7 6.1,-17.27 9.17,-25.9 1,-2.77 1.89,-5.57 2.93,-8.32 1.21,-3.2 1.4,-6.14 -1.52,-8.62 a 64.1,64.1 0 0 1 -4.71,-4.46 c -2.18,-2.29 -4.36,-2 -6.61,-0.22 -7.32,5.93 -14.56,12 -22,17.78 q -9.57,7.51 -19.45,14.64 c -5.61,4.06 -11.56,7.65 -17.07,11.84 -10.89,8.29 -21.58,16.86 -32.37,25.3 -2.51,2 -5.16,2.11 -6.81,-0.83 -3.88,-6.95 -7.48,-14.05 -11.12,-21.14 q -4.53,-8.85 -8.87,-17.81 c -3.94,-8.17 -8,-16.3 -11.57,-24.64 -1.36,-3.19 -2.47,-3.29 -5.07,-1.61 -4.84,3.1 -9.91,5.83 -14.75,8.93 -3,1.91 -7.09,3.64 -8.27,6.46 -2.24,5.35 -2.91,11.39 -3.91,17.2 -0.95,5.55 -2,11.17 -2.1,16.77 -0.34,22.6 -0.54,45.19 -0.33,67.79 0.08,7.58 1.45,15.17 2.41,22.73 1.19,9.46 2.55,18.9 3.88,28.34 a 17.88,17.88 0 0 0 0.76,1.84 c 0.75,2.84 1.56,5.67 2.14,8.55 1.39,6.89 2.64,13.8 4,20.69 0.12,0.62 0.71,1.14 0.91,1.76 0.7,2.17 1.34,4.35 1.95,6.54 1.52,5.47 2.8,11 4.57,16.4 1.61,4.93 4.5,9.56 5.41,14.58 0.91,5.02 3.25,6.28 7.73,6.24 13.13,-0.11 26.29,-0.04 39.45,-0.04 z M 534,409.33 a 48.49,48.49 0 0 1 0.44,-6.95 c 0.32,-1.6 1.19,-4.09 2.23,-4.32 a 9.72,9.72 0 0 1 6.53,0.84 c 1.84,1.09 3.08,3.36 4.33,5.29 2.78,4.3 5.31,8.77 8.11,13.07 6.31,9.67 12.78,19.25 19.08,28.94 2.36,3.62 5.14,4.1 8,1.29 14.06,-14.12 29,-27.26 45.56,-38.36 6,-4 12.16,-7.93 18.53,-11.35 3.59,-1.91 4.47,-3.38 1.13,-5.82 a 46,46 0 0 0 -10.8,-5.82 c -8.53,-3.21 -14,-10.5 -14,-19.42 a 24,24 0 0 0 -0.41,-6 c -2,-7.52 -3.86,-15.13 -6.55,-22.42 -2.08,-5.67 -4.53,-11.53 -8.19,-16.24 -12.36,-15.89 -29.4,-25.63 -47.34,-33.89 a 3.12,3.12 0 0 0 -2.93,0.73 c -2.56,4.95 -5.11,9.93 -7.19,15.09 -2.82,7 -5.21,14.11 -7.82,21.16 -1.14,3.07 -2.42,6.1 -3.6,9.15 -1.93,5 -4.05,9.87 -5.71,14.92 -1.57,4.78 -2.57,9.73 -4,14.56 -2,7 -4.27,13.95 -6.36,20.94 -1.49,5 -2.84,10.06 -4.34,15.06 -1.82,6.12 -4,12.13 -5.52,18.32 -1.65,6.84 -2.67,13.83 -4,20.75 -0.13,0.65 -0.48,1.24 -0.65,1.88 -2,7.61 -4.19,15.15 -5.8,22.83 -1.61,7.68 -2.61,15.53 -3.9,23.3 -0.08,0.49 -0.4,0.92 -0.51,1.4 -0.83,3.66 -1.68,7.32 -2.41,11 -0.39,1.95 -0.4,4 -0.84,5.9 -1.9,8.3 -4.53,16.48 -5.71,24.87 -1.66,11.72 -3.36,23.36 -6.67,34.77 -0.88,3 -2.37,8.15 1.93,9.15 5.17,1.21 11,0.75 16.28,-0.23 1.55,-0.29 2.32,-4.81 3.45,-7.39 0.07,-0.16 0.14,-0.31 0.2,-0.46 3.09,-7.9 6.36,-15.73 9.19,-23.72 2.73,-7.72 5,-15.61 7.48,-23.41 q 1.78,-5.5 3.86,-10.93 c 3,-7.77 6.16,-15.46 9,-23.25 2.79,-7.5 5.18,-15.15 8,-22.63 1.51,-4 4,-7.57 5.32,-11.58 a 14.09,14.09 0 0 0 0,-8.21 c -0.95,-2.85 -3.52,-5.11 -4.88,-7.87 -3.92,-7.89 -9.25,-15.39 -8.52,-24.94 z M 175.05,309.6 c -0.42,1.24 -0.43,2.09 -0.85,2.41 -7.35,5.56 -14.41,11.62 -22.27,16.34 -4.15,2.5 -9.75,2.51 -14.62,3.89 -6.55,1.87 -12.93,4.47 -19.57,5.86 -8.12,1.7 -16.43,2.62 -24.69,3.62 -5.08,0.61 -7,3.57 -5,8.22 1.84,4.37 3.49,8.83 5,13.32 0.33,1 -0.15,2.25 -0.36,3.37 -0.7,3.52 -1.5,7 -2.14,10.56 -0.39,2.11 -0.45,4.27 -0.85,6.38 -0.77,4 -1.75,7.93 -2.49,11.92 -0.37,1.94 0.2,4.29 -0.7,5.87 -3.25,5.74 -2.54,11.9 -2.73,18 -0.1,3.14 -0.62,6.27 -1,9.4 -0.8,6.42 -2.53,12.88 -2.27,19.25 0.69,16.9 2.08,33.77 3.53,50.63 0.63,7.4 5.34,11.07 12.88,11.22 2.31,0.05 4.62,0.57 6.93,0.61 5.91,0.11 11.88,0.61 17.71,0 7,-0.77 13.77,-2.65 20.66,-3.92 6.89,-1.27 11.51,-4.9 13.75,-11.35 a 77,77 0 0 0 3.64,-13.79 c 2.13,-14.35 -0.74,-28.32 -3.9,-42.21 -1,-4.46 -2.48,-8.82 -3.72,-13.22 -1.89,-6.77 -5,-13.47 -5.4,-20.33 -0.84,-14.6 -0.33,-29.28 -0.17,-43.93 0,-1.55 1,-3.86 2.2,-4.49 5.39,-2.79 11.13,-4.89 16.55,-7.62 5.13,-2.58 10.73,-4.85 14.85,-8.64 7.53,-6.93 15.4,-13.46 19.66,-23.7 3.37,-8.09 -3.16,-21.27 -8.65,-23 -5.76,-1.82 -11.6,-3.39 -17.45,-4.9 -4.71,-1.22 -10.94,1.67 -11.48,5.1 -1.35,8.63 1.78,13.94 8.52,14.48 1.38,0.11 2.74,0.4 4.43,0.65 z m 416.49,325.95 v -0.07 c 19.32,0 38.65,-0.16 58,0.12 a 12,12 0 0 0 10.66,-5.17 c 8.06,-11 15.9,-22.25 23.76,-33.45 2.36,-3.35 4.64,-6.77 6.7,-10.31 3.67,-6.29 7.34,-12.59 10.65,-19.06 3.87,-7.57 7.39,-15.31 11,-23 3.16,-6.74 6.32,-13.47 9.23,-20.32 0.48,-1.13 -0.06,-2.95 -0.61,-4.25 -3.1,-7.32 -6.31,-14.6 -9.56,-21.85 -2.26,-5.05 -4.57,-10.09 -7.07,-15 a 3.25,3.25 0 0 0 -2.88,-1.09 46.9,46.9 0 0 0 -9.59,3.25 c -6.78,3.49 -13.5,7.15 -19.94,11.2 -6.14,3.86 -12.35,7.82 -17.75,12.61 -12.26,10.91 -25.18,21.27 -30.64,38 -3,9.16 -7.62,17.77 -11.45,26.66 -1.36,3.16 -2.58,6.38 -3.79,9.6 -1.9,5 -3.83,10.09 -5.57,15.2 a 160.09,160.09 0 0 0 -4.73,15.36 c -1.25,5.4 -6.45,8.43 -11.21,6.33 -2.91,-1.28 -6.14,-1.83 -9.22,-2.7 -1.42,-0.4 -2.85,-0.74 -4.25,-1.19 -5.58,-1.79 -11.12,-3.72 -16.75,-5.34 a 4.91,4.91 0 0 0 -3.72,0.94 q -11.62,8.92 -23,18.15 c -1.11,0.91 -1.49,2.72 -2.21,4.11 1.51,0.45 3,1.28 4.51,1.28 19.78,0.02 39.6,-0.01 59.43,-0.01 z m -252.42,-453 q 0,17.24 0,34.48 a 13.47,13.47 0 0 0 13.3,13.64 c 20.49,0 41,0.42 61.46,-0.28 5.29,-0.18 10.9,-3.14 15.61,-6.05 11.79,-7.29 13.56,-20.09 15.58,-32.21 0.78,-4.68 2.26,-5.88 6.51,-5.75 4.55,0.15 8.72,-0.24 13.25,-2.65 12.13,-6.45 13,-13.52 11.9,-25 -0.44,-4.56 -4.86,-7.73 -9.55,-7.65 -4.18,0.08 -8.59,3.59 -8.6,8 0,5.71 -3.09,8.17 -7.75,10.24 -7.51,3.34 -11.74,0.71 -11.72,-7.64 0.05,-15.16 0,-30.32 0.05,-45.48 0,-2.78 0,-5.89 -3.8,-5.73 -7.88,0.33 -14.64,-2.72 -21.35,-6.18 a 2.29,2.29 0 0 0 -1.89,-0.11 c -5.9,3.7 -12.54,5.08 -19.05,7.14 a 54.44,54.44 0 0 1 -27.18,1 c -5,-1.34 -9.71,-3.6 -14.59,-5.34 a 4.89,4.89 0 0 0 -2.95,0.1 c -5.92,2 -11.39,13.39 -8.82,19 0.57,1.23 2.77,2.23 4.31,2.38 3.63,0.35 7.32,0.07 11,0.15 5.28,0.11 8.19,3.14 8.19,8.41 0,6.17 0.38,12.37 -0.18,18.48 -0.53,5.76 2.71,8.23 7.11,9.91 a 16.18,16.18 0 0 0 5.92,0.54 c 3.08,-0.07 4.72,1.19 4.79,4.34 0.07,3.42 -1.75,4.34 -5,4.7 -5.56,0.6 -10.28,-1.47 -15.22,-3.36 -3.8,-1.45 -5.86,-3.64 -6.48,-7.78 -0.38,-2.57 -1.46,-5.55 -3.26,-7.27 -2.67,-2.55 -3.88,-5 -3.58,-8.7 0.25,-3 0.87,-7 -4.07,-6.86 -4.94,0.14 -3.89,4.09 -3.91,7.08 -0.08,11.47 -0.03,22.96 -0.03,34.46 z m 108.35,392 H 450 c 11.17,0 12.85,-1.74 13.07,-13 a 45.37,45.37 0 0 1 1.17,-7.8 c 0.61,-3 1.55,-6 2.09,-9.08 1.43,-8.08 2.71,-16.18 4.09,-24.27 0.1,-0.63 0.64,-1.18 0.81,-1.81 0.69,-2.52 1.5,-5 1.94,-7.6 1.39,-7.92 2.62,-15.86 3.93,-23.78 0.08,-0.49 0.42,-0.92 0.54,-1.4 1.92,-7.79 4,-15.56 5.67,-23.39 1.54,-7.05 2.69,-14.18 4.06,-21.27 0.12,-0.62 0.69,-1.15 0.88,-1.77 0.7,-2.33 1.44,-4.66 2,-7 1.43,-6.56 2.69,-13.16 4.16,-19.71 1,-4.3 2,-8.6 3.32,-12.82 1.89,-6.23 4.1,-12.37 6,-18.61 2.14,-7 4.06,-14.12 6.12,-21.18 1.37,-4.71 2.88,-9.37 4.22,-14.09 1.43,-5 2.49,-10.12 4.16,-15 1.67,-4.88 4.13,-9.53 5.85,-14.42 2.65,-7.57 4.08,-15.7 7.63,-22.78 5.23,-10.41 5.32,-14.49 -7.58,-17.77 -3.83,-1 -5.84,0.34 -7.38,3 a 56.08,56.08 0 0 0 -3.34,8.16 q -5.63,15 -11.21,29.95 c -1.27,3.37 -2.55,6.74 -3.87,10.1 -1.95,5 -4.1,9.88 -5.86,14.93 -1.61,4.63 -2.73,9.43 -4.19,14.12 -2,6.38 -4.11,12.73 -6.2,19.09 -1.57,4.79 -3.24,9.56 -4.77,14.37 -1.8,5.6 -3.62,11.19 -5.2,16.85 -1.58,5.66 -2.8,11.7 -4.44,17.48 -1.7,6 -4,11.76 -5.54,17.77 -1.67,6.66 -2.7,13.49 -4,20.23 -0.16,0.8 -0.63,1.54 -0.86,2.33 -1.89,6.77 -4.06,13.48 -5.57,20.33 -1.61,7.34 -2.58,14.81 -3.86,22.23 -0.08,0.48 -0.38,0.92 -0.5,1.4 -2,7.78 -4.28,15.49 -5.83,23.35 -1.65,8.38 -2.56,16.9 -3.89,25.34 -0.17,1.12 -0.94,2.14 -1.26,3.25 a 38.29,38.29 0 0 0 -1.76,7.19 c -0.49,6.12 0.48,7 6.48,7.12 2.05,0.03 4.22,0.01 6.39,0.01 z M 250.54,425.92 v 0 c 0,4.16 0.38,8.37 -0.07,12.49 -1.9,17.11 3.53,33.59 3.79,50.59 0,1.44 0.88,2.85 1.2,4.3 0.69,3.05 1.34,6.12 1.89,9.19 1.34,7.6 2.61,15.21 3.94,22.82 0.09,0.47 0.49,0.88 0.63,1.35 1.94,6.54 4,13 5.75,19.63 1.48,5.54 2.53,11.18 4,16.73 a 36.12,36.12 0 0 0 3,8.21 c 0.79,1.45 2.67,3.1 4.15,3.21 5.48,0.38 11,0.17 16.49,0.15 3.15,0 4.88,-1.74 4.2,-4.75 -1.22,-5.4 -2.77,-10.74 -4.42,-16 -1.75,-5.58 -4.14,-11 -5.59,-16.62 -1.66,-6.44 -2.59,-13.07 -3.87,-19.6 -0.12,-0.63 -0.64,-1.18 -0.82,-1.81 -0.8,-2.63 -1.68,-5.24 -2.25,-7.92 -0.41,-1.94 -0.17,-4 -0.59,-5.94 -1.9,-8.81 -4.35,-17.52 -5.8,-26.39 -1.6,-9.8 -2.69,-19.71 -3.39,-29.62 -2,-28.61 0.22,-57.09 3.35,-85.51 0.66,-6 2,-12 3.27,-17.91 1,-5 2.23,-9.92 3.46,-14.84 1,-4.13 2,-8.3 3.41,-12.3 1.77,-5 4,-9.83 6,-14.77 1.09,-2.78 1.05,-5.23 -2.46,-6.37 -5.63,-1.83 -16.92,4.84 -18.27,8.75 -1.59,4.6 -2.64,9.39 -4,14.08 q -1.91,6.58 -4,13.13 c -2,6.31 -4.72,12.48 -5.95,18.93 -1.82,9.5 -2.59,19.21 -3.83,28.82 -0.13,1 -0.43,2 -0.57,2.94 -0.88,6.2 -2.21,12.37 -2.51,18.6 -0.47,8.75 -0.14,17.6 -0.14,26.43 z m 425.57,-16.75 c -3,1.3 -6,2.55 -8.88,3.94 -8.13,3.86 -16.74,7 -24.21,11.9 -8.12,5.32 -15,12.49 -22.72,18.46 -13.44,10.37 -24.16,23.1 -33.82,36.93 -2,2.85 -1.9,4.13 0.54,6.55 7.8,7.72 15.34,15.71 22.82,23.75 4.08,4.39 4.53,4.59 9.2,0.56 10.27,-8.88 20.39,-18 30.86,-26.6 4.28,-3.54 9.22,-6.3 14,-9.19 6.7,-4 13.45,-8 20.31,-11.76 a 169,169 0 0 1 16.54,-8.15 c 4.7,-1.94 5.86,-5.09 1.67,-8.24 -10.67,-8 -14.49,-19.78 -18.13,-31.61 -1.35,-4.35 -3.62,-6.08 -8.18,-6.54 z m -145.73,181.76 -0.71,0.21 a 8.25,8.25 0 0 0 0,2 c 0.41,1.51 0.95,3 1.44,4.48 a 27.65,27.65 0 0 0 4.39,-1.49 c 2.45,-1.31 4.63,-3.2 7.17,-4.24 a 93.19,93.19 0 0 1 11.56,-3.72 c 7.2,-1.9 13.93,1.39 19.85,4.07 6.57,3 7.84,1.74 9.1,-4.53 1.26,-6.27 3.82,-12.18 5.82,-18.23 1.41,-4.21 2.78,-8.43 4.32,-12.59 2.62,-7 5.45,-14 7.88,-21.12 0.25,-0.72 -1.39,-2.84 -2.49,-3.15 -6.94,-2 -11.3,-6.26 -13.75,-13.06 -1.31,-3.63 -3.07,-7.44 -5.67,-10.19 -4.71,-5 -10.29,-9.12 -15.32,-13.82 -1.93,-1.79 -3.34,-4.13 -5,-6.22 -0.88,2.34 -1.7,4.71 -2.66,7 q -7.79,18.59 -15.63,37.12 c -1.33,3.14 -2.81,6.21 -4.1,9.36 -1.91,4.68 -3.85,9.35 -5.52,14.12 -2.32,6.59 -6.8,12.73 -4.71,20.33 1.31,4.58 2.7,9.12 4.03,13.67 z M 396,254 l -0.15,-0.92 c -4.83,0 -9.7,-0.33 -14.47,0.18 -1.73,0.19 -4.48,2.29 -4.61,3.72 a 70.4,70.4 0 0 0 0.39,13.91 c 0.74,7 1.91,14 2.8,21.06 0.38,3 0.47,6 0.79,8.93 0.81,7.54 1.62,15.08 2.57,22.61 a 34.52,34.52 0 0 0 1.53,5.35 c 1.46,-0.88 3.24,-1.47 4.32,-2.68 17.72,-19.79 34.78,-40.21 53.25,-59.27 8,-8.26 12.19,-16.36 10.36,-27.53 -0.33,-2 -1,-3.9 -1.54,-5.85 -1.7,1.09 -3.42,2.15 -5.11,3.27 -6.44,4.25 -12.35,10.16 -19.43,12.38 -9.76,3.05 -20.4,3.34 -30.7,4.84 z m -17.35,375 c 11.49,0 23,-0.08 34.46,0 4,0 5.79,-1.35 5.67,-5.53 -0.2,-7 -0.16,-14 0,-21 0.09,-3.87 -1.53,-5.36 -5.34,-5.35 q -34.45,0.12 -68.91,0 c -4.2,0 -5.56,1.84 -5.47,5.77 0.16,6.66 0.23,13.33 0,20 -0.17,4.57 1.64,6.21 6.15,6.13 11.13,-0.15 22.29,-0.02 33.44,-0.02 z M 235,357.09 h -0.11 a 12.93,12.93 0 0 0 -0.07,-3.47 5.51,5.51 0 0 0 -1.93,-3.06 c -0.52,-0.3 -2.12,0.63 -2.86,1.38 -10.32,10.38 -20.56,20.85 -30.87,31.26 -2.36,2.38 -2.26,4.43 -0.66,7.49 a 194.35,194.35 0 0 1 8.19,18.83 c 1.63,4.09 2.9,8.34 4.13,12.58 1.95,6.75 4.58,13.45 5.38,20.35 1.32,11.37 1.34,22.89 2.05,34.34 0.11,1.84 1,3.64 1.48,5.46 1.78,-0.52 3.58,-1 5.34,-1.6 1.08,-0.36 2.06,-1 3.16,-1.29 3.15,-0.75 3.24,-2.65 2.49,-5.31 -1,-3.49 -2.33,-7.08 -2.33,-10.62 0.05,-34.41 -3,-69 6.33,-102.86 A 17.3,17.3 0 0 0 235,357.09 Z M 486,247.7 c -1.69,-1.62 -4.75,-4.63 -8,-7.45 -0.12,-0.11 -2.41,1.47 -2.7,2.53 a 14.25,14.25 0 0 0 -0.09,5.45 c 0.93,7.6 -1.88,13.45 -7.63,18.39 a 135.35,135.35 0 0 0 -12.37,12.29 c -18.17,20.28 -36.2,40.69 -54.34,61 -2.76,3.08 -5.9,5.82 -8.72,8.85 -0.63,0.68 -0.65,1.93 -0.95,2.92 1.13,-0.14 2.56,0.11 3.34,-0.49 11,-8.49 21.87,-17.15 32.86,-25.66 9.29,-7.2 18.9,-14 28,-21.46 8.11,-6.63 8.47,-6.91 16.29,0.12 a 26.57,26.57 0 0 0 2.91,2.72 c 1.15,0.75 2.78,1.88 3.73,1.54 0.95,-0.34 1.93,-2.21 2.06,-3.5 1.93,-18.29 3.66,-36.6 5.61,-57.25 z M 197.35,471.19 198.67,471 c -1.64,-12.23 -3.1,-24.48 -5,-36.66 a 54.92,54.92 0 0 0 -4,-13.1 c -4.15,-9.51 -8.49,-19 -13.24,-28.18 -2.93,-5.7 -6.67,-11 -10.2,-16.38 -1.48,-2.25 -3.8,-1.71 -3.79,0.61 0,7.33 -2,14.76 1.75,22 a 184.57,184.57 0 0 1 11.18,24.52 c 2.23,6.38 2.64,13.38 3.88,20.1 a 42.6,42.6 0 0 0 0.94,4.38 58.89,58.89 0 0 1 0.08,33.81 c -0.71,2.53 -0.62,5.27 -1.18,7.85 -0.67,3.13 -2,6.16 -2.38,9.32 -0.38,3.16 -1.16,7.53 0.46,9.67 2,2.66 5.39,0.38 7.57,-2 0.43,-0.47 1.18,-0.63 1.68,-1.05 6.59,-5.55 12.65,-11.2 11.07,-21.22 -0.71,-4.4 -0.14,-8.99 -0.14,-13.48 z m 291.2,-250.72 c 5.92,-1.26 11.87,-2.4 17.76,-3.81 8.89,-2.12 17.75,-4.43 26.62,-6.67 0.64,-0.17 1.23,-0.5 1.86,-0.69 6.4,-1.92 12.74,-4.08 19.22,-5.67 6.65,-1.64 13.44,-2.72 20.16,-4.07 a 14.8,14.8 0 0 0 1.36,-0.6 c 6.39,-1.89 12.72,-4 19.18,-5.56 6.64,-1.6 13.41,-2.67 20.12,-4 0.47,-0.09 0.88,-0.48 1.35,-0.62 2.62,-0.79 5.29,-1.46 7.88,-2.35 1.89,-0.64 5.14,-1.38 5.26,-2.37 0.37,-3.14 -0.33,-6.45 -1,-9.63 -0.08,-0.43 -2.22,-1 -3,-0.67 -5.16,2.15 -11.52,-0.5 -16.09,4.13 -0.64,0.64 -2.24,0.28 -3.38,0.49 -6.53,1.23 -13.45,1.55 -19.45,4.06 -4.13,1.73 -8.34,1.72 -12.12,3.1 -5,1.82 -9.84,3.35 -15.14,3.42 -0.44,0 -0.85,0.54 -1.31,0.68 -2.61,0.78 -5.2,1.6 -7.84,2.23 -1.6,0.38 -3.35,0.17 -4.89,0.67 -6,1.93 -11.79,4.4 -17.85,6 -6.61,1.72 -13.47,2.48 -20.14,4 -8.89,2 -17.7,4.41 -26.55,6.61 -3.32,0.83 -4.29,3 -2.2,5.47 2.64,3.01 5.15,6.8 10.19,5.85 z M 312.32,311.2 c 1.9,0 3.12,0.36 3.95,-0.05 5,-2.49 10,-5.14 14.91,-7.77 2.67,-1.41 5.59,-2.48 7.4,0.74 3.74,6.65 7.09,13.52 10.56,20.32 3.65,7.13 7.21,14.31 10.9,21.41 0.39,0.74 1.77,1.76 2.12,1.57 a 3.72,3.72 0 0 0 2,-2.37 104.66,104.66 0 0 0 0.05,-10.48 121.37,121.37 0 0 0 -0.83,-12.36 c -0.53,-3.85 -2.06,-7.58 -2.38,-11.42 -0.49,-6 1.35,-12.69 -0.84,-17.77 -3.12,-7.23 -2.2,-14.27 -2.85,-21.43 -0.26,-2.94 -1.35,-5.8 -2.06,-8.7 -2.6,1.5 -5.71,2.52 -7.72,4.6 -6.79,7 -16.82,10.28 -21.15,20.34 -3.38,7.91 -8.89,14.94 -14.06,23.37 z M 333.1,249 c -0.35,-0.39 -0.69,-0.78 -1,-1.18 -4.59,0.87 -9.23,1.55 -13.76,2.64 -8.24,2 -16.42,4.2 -24.62,6.33 -1,0.25 -1.88,0.64 -2.83,0.93 -6.24,1.9 -12.42,4.07 -18.75,5.62 -6.5,1.59 -13.15,2.56 -19.72,3.84 -0.64,0.12 -1.19,0.6 -1.82,0.78 -6.38,1.91 -12.71,4 -19.17,5.61 -6.46,1.61 -13.16,2.3 -19.61,4 -1.93,0.49 -4,2.65 -4.76,4.55 -0.41,1 1.58,3.26 2.89,4.56 2.53,2.5 13.22,2.72 17.15,1.23 a 174.69,174.69 0 0 1 18.54,-6 c 6.49,-1.66 13.2,-2.51 19.73,-4 8.6,-2 17.12,-4.3 25.67,-6.5 1,-0.24 1.86,-0.72 2.81,-1 6.27,-1.87 12.52,-5.13 18.83,-5.26 11.91,-0.28 13.4,-11.15 20.42,-16.15 z m 373.27,-51.29 c -4.78,2.11 -8.76,3.58 -12.36,5.7 -0.83,0.49 -0.94,3.5 -0.32,4.87 1.34,2.94 3.45,5.52 5.11,8.32 4.08,6.92 8.21,13.81 12.08,20.84 4.72,8.61 9.14,17.38 13.81,26 4.15,7.69 8.42,15.32 12.73,22.91 a 13.2,13.2 0 0 0 2.63,2.59 c 0.74,-1.14 2.12,-2.3 2.09,-3.42 a 29.2,29.2 0 0 0 -1.44,-6.69 c -0.52,-1.89 -1.37,-3.69 -1.84,-5.59 -1.44,-5.86 -2.71,-11.77 -4.18,-17.63 a 81.8,81.8 0 0 0 -2.8,-9.19 c -1.56,-4.07 -3.43,-8 -5.13,-12 -1.7,-4 -3.4,-8.11 -5.08,-12.18 -2.66,-6.45 -4.92,-13.11 -8.15,-19.27 -1.22,-2.37 -4.65,-3.54 -7.15,-5.28 z M 342.23,76 a 55,55 0 0 0 0.52,6.93 A 3.74,3.74 0 0 0 345,85 c 0.39,0.14 1.44,-1.07 1.93,-1.84 2.87,-4.54 5.24,-9.47 8.59,-13.6 4.45,-5.48 11.17,-7.4 17.79,-7.14 8.93,0.34 16.88,4.46 23.8,10 7.55,6 16.43,9.3 25.35,11.5 9.73,2.4 19.21,-1.09 27.8,-6.11 1,-0.62 1.39,-2.46 2,-3.73 -1.5,-0.23 -3.47,-1.19 -4.42,-0.58 -10.52,6.8 -20.67,1.09 -30,-2.06 -8.48,-2.86 -15.48,-9.88 -23.61,-14.16 A 86.16,86.16 0 0 0 373.6,49.51 c -3.4,-0.78 -7.53,1.79 -11.35,2.73 C 350.78,55 342.71,64.59 342.23,76 Z m 244.36,-19.72 -1.74,1.66 c 1.5,2 2.93,4 4.54,5.84 11.32,13.22 22.76,26.35 34,39.64 6.31,7.45 12.18,15.25 18.59,22.6 1.13,1.31 4,1.79 5.94,1.55 3.15,-0.37 6.22,-1.58 9.28,-2.56 1.5,-0.48 3.73,-0.89 4.14,-1.93 0.41,-1.04 -0.35,-3.4 -1.36,-4.43 -9.33,-9.48 -18.26,-19.46 -28.4,-28 -12.1,-10.2 -25.29,-19.11 -38,-28.62 -2.38,-1.81 -4.65,-3.82 -6.99,-5.75 z m 118.3,113.3 c -0.36,-2.11 -0.32,-4.4 -1.16,-6.3 -3,-6.84 -6.37,-13.55 -9.61,-20.3 a 10,10 0 0 0 -11,-5.78 153.41,153.41 0 0 0 -15.51,4 c -0.73,0.22 -1.58,2.89 -1.12,3.63 a 83.41,83.41 0 0 0 7.31,9.85 c 5.89,6.78 7.74,15.1 9.16,23.55 0.73,4.38 3.32,6 7.29,3.87 1.72,-0.9 3.46,-2.14 5.3,-2.36 8.45,-1.02 9.08,-1.64 9.34,-10.16 z M 143,284.47 v 0 c 0,-4 0.1,-8 -0.06,-12 -0.06,-1.58 -0.21,-3.6 -1.17,-4.64 -4.51,-4.86 -9.24,-9.53 -14.06,-14.09 -2.09,-2 -11.44,-1.43 -13,0.77 -2.46,3.42 0.29,5.82 2.08,8.35 4.34,6.16 9.9,11.73 10.5,19.8 0.44,5.95 0.5,11.93 0.76,17.89 0.2,4.55 2.91,6.28 7,4.4 5.32,-2.46 9.69,-5.43 8.06,-12.56 -0.64,-2.5 -0.11,-5.26 -0.11,-7.92 z m 350.77,312.76 v 0 c -3.5,0 -7,0 -10.5,0 -2.77,0 -4.47,1.17 -4.48,4.11 0,7.83 -0.18,15.67 0.15,23.48 0.05,1.4 2.07,3.79 3.33,3.9 6.52,0.52 13.33,1.6 18.25,-4.73 1.39,-1.79 3.69,-2.86 5.28,-4.53 a 10.72,10.72 0 0 0 2.88,-4.51 c 3.35,-14.29 0.58,-17.74 -13.91,-17.74 z M 119.4,303.73 c -0.56,-1.9 -1.17,-3.78 -1.67,-5.69 -0.74,-2.85 -2.27,-5.81 -2,-8.56 0.84,-7.58 -1.9,-13.23 -7.58,-17.88 a 37.54,37.54 0 0 1 -4.25,-4.21 c -3.59,-4 -7.33,-7.48 -13.13,-3.9 -2.47,1.52 -4.85,3.18 -7.27,4.78 a 65.47,65.47 0 0 0 4,5.66 c 3.14,3.6 7.22,6.62 9.49,10.68 2.27,4.06 2.89,9.31 4.37,14 a 57.25,57.25 0 0 0 3.32,8.69 4.85,4.85 0 0 0 3.42,2.06 c 2.12,0.21 4.3,-0.36 6.46,-0.38 3.56,-0.06 4.77,-1.98 4.84,-5.25 z M 66.13,272.62 c -3.46,1.55 -6.76,2.89 -9.92,4.48 -2.83,1.43 -2.57,3.15 0,4.76 a 39.82,39.82 0 0 1 3.3,2.14 c 5.74,4.62 11.93,8.59 14.68,16.23 1.62,4.52 5,8.42 7.85,12.46 2.34,3.34 6,4.26 9.18,2.18 1.85,-1.22 3.81,-4.92 3.24,-6.71 -1.94,-6.15 -5.21,-11.86 -7.54,-17.9 -2.71,-7 -8.92,-10.42 -14.36,-14.61 -1.71,-1.28 -3.96,-1.88 -6.43,-3.03 z m 598.73,-90.49 c -1.37,-3.61 -3.39,-7.12 -4,-10.86 -1.59,-9.67 -8,-15.88 -14.62,-22.06 -2.54,-2.38 -9,-2.17 -11.06,0.14 -3.39,3.72 -0.16,5.82 2,8.31 6.08,7.07 11.61,14.4 11.89,24.35 0.08,2.77 0,5.87 1.3,8.1 0.52,0.91 4.41,-0.07 6.76,-0.26 6.78,-0.55 6.81,-0.6 7.73,-7.72 z M 456.37,613.6 c 0,-1.83 0,-3.66 0,-5.49 0.07,-11.55 1.33,-11 -12.29,-10.87 -3.48,0 -5.09,1.83 -5,5.37 0.12,5 0.06,10 0.06,15 0,11.63 1.27,12.88 12.93,11.2 1.61,-0.23 3.82,-2.58 4.12,-4.24 0.62,-3.57 0.18,-7.3 0.18,-10.97 z M 169.86,262.44 a 7.39,7.39 0 0 0 -1,-1.77 c -5.59,-5.69 -10.83,-11.85 -17.07,-16.73 -2,-1.52 -7.3,-0.61 -9.89,1.06 -3.34,2.15 -1.33,5.62 1,8.09 5.25,5.53 10.71,10.93 10.27,19.47 a 3.15,3.15 0 0 0 0.42,1.43 c 1.42,2.94 3.46,3.66 5.81,1.15 3.29,-3.52 6.39,-7.22 9.53,-10.87 a 8.17,8.17 0 0 0 0.93,-1.83 z m 150.26,350.61 c 0,-3.66 0,-7.33 0,-11 0.05,-3.35 -1.52,-4.92 -4.86,-4.82 a 39.73,39.73 0 0 1 -4.5,0 c -4.4,-0.36 -5.89,1.76 -5.76,6 0.2,6.49 0.27,13 0,19.48 -0.22,4.83 1.68,6.82 6.41,6.35 a 33.35,33.35 0 0 1 4,0 c 3.4,0.08 4.8,-1.67 4.74,-4.94 -0.07,-3.74 -0.03,-7.4 -0.03,-11.07 z m -34.15,0.06 c 0,-3.82 0,-7.65 0,-11.47 0,-2.8 -1.3,-4.37 -4.22,-4.37 -1.66,0 -3.33,0.08 -5,0 -4.34,-0.34 -5.93,1.66 -5.81,5.91 0.21,6.81 0.15,13.63 0,20.45 -0.07,3.75 1.39,5.64 5.27,5.43 1.65,-0.09 3.32,-0.06 5,0 3.41,0.11 4.8,-1.66 4.76,-4.91 -0.04,-3.73 0.03,-7.38 0.03,-11.04 z M 34.36,336.23 c 1,-0.16 2,-0.23 3,-0.48 8.18,-2.13 16.39,-4.14 24.48,-6.58 A 5.44,5.44 0 0 0 64.72,325 c 0,-3.34 -5.38,-7.92 -8.64,-7.16 -8.07,1.9 -16.06,4.22 -24,6.66 -1.64,0.51 -2.89,2.3 -4.33,3.5 2.41,2.57 -0.06,9.07 6.61,8.23 z m 179.37,2.7 a 42.06,42.06 0 0 0 4.41,-2.89 c 9.42,-8.92 18.84,-17.84 28.15,-26.88 0.86,-0.83 1,-2.44 1.41,-3.68 -1.5,-0.05 -3.07,-0.42 -4.47,-0.07 -1.87,0.46 -3.55,1.7 -5.42,2.2 -5.16,1.39 -10.41,2.42 -15.52,4 -1,0.31 -1.84,2.14 -2.31,3.43 -2.17,5.94 -4.28,11.91 -6.18,17.93 -0.46,1.41 -0.07,3.13 -0.07,5.96 z"
         id="path1" />
      <path
         class="cls-1"
         d="m 366.05,492.83 c 8,-1.6 14.9,5.69 14.39,14.71 -0.47,8.28 -6.15,14.45 -13.87,14.85 -7.25,0.37 -16.28,-9.46 -16.11,-15.53 0.23,-8.48 6.27,-14.04 15.59,-14.03 z"
         id="path2" />
      <path
         class="cls-1"
         d="m 380,437.15 c 1.11,9.66 -4.1,14 -14.59,14.08 -8.09,0 -14.87,-6.3 -14.9,-14 0,-7 8.8,-15.91 15.73,-15.85 8.4,0.13 13.76,6.25 13.76,15.77 z"
         id="path3" />
      <path
         class="cls-1"
         d="m 406.4,128.59 c 5.67,0 11.33,0.14 17,0 4.92,-0.15 5.3,3.26 5.38,6.65 0.08,3.39 -1.23,5.91 -5.29,5.63 -0.5,0 -1,0 -1.5,0 -10.37,0.15 -10.06,0.19 -11.49,10.23 -0.31,2.12 -3.77,5.25 -5.82,5.28 -2.05,0.03 -4.37,-3 -6.39,-5 -0.41,-0.38 0,-1.6 0,-2.43 0.07,-8 0.06,-8.25 -8,-8 -5.1,0.15 -6.16,-2.21 -6.26,-6.61 -0.12,-4.81 2.17,-6 6.45,-5.81 5.32,0.23 10.65,0.06 16,0.06 z"
         id="path4" />
      <path
         class="cls-1"
         d="m 375.41,195.4 c -5.65,0 -11.31,0.18 -16.93,-0.13 -1.54,-0.09 -3,-1.69 -4.5,-2.6 1.42,-1.07 2.8,-3 4.25,-3.06 8.63,-0.32 17.27,-0.41 25.89,-0.16 a 11.59,11.59 0 0 0 11.08,-6.07 c 1.71,-2.81 4.21,-5.24 7.09,-2.76 1.19,1 0.71,5.22 -0.31,7.34 -2.54,5.26 -6.69,8.27 -13.14,7.54 -4.42,-0.5 -8.95,-0.09 -13.43,-0.1 z"
         id="path5" />
    </g>
  </g>
</svg>
